<?xml version="1.0" encoding="UTF-8"?><svg xmlns="http://www.w3.org/2000/svg" xmlns:xlink="http://www.w3.org/1999/xlink" contentStyleType="text/css" height="278px" preserveAspectRatio="none" style="width:827px;height:278px;background:#FFFFFF;" version="1.1" viewBox="0 0 827 278" width="827px" zoomAndPan="magnify">
    <defs/>
    <g>
        <!--cluster Ejercicios_Figuras-->
        <g id="cluster_Ejercicios_Figuras">
            <path d="M8.5,6 L149.5,6 A3.75,3.75 0 0 1 152,8.5 L159,28.2969 L479.5,28.2969 A2.5,2.5 0 0 1 482,30.7969 L482,244.5 A2.5,2.5 0 0 1 479.5,247 L8.5,247 A2.5,2.5 0 0 1 6,244.5 L6,8.5 A2.5,2.5 0 0 1 8.5,6 " fill="none" style="stroke:#000000;stroke-width:1.5;"/>
            <line style="stroke:#000000;stroke-width:1.5;" x1="6" x2="159" y1="28.2969" y2="28.2969"/>
            <text fill="#000000" font-family="sans-serif" font-size="14" font-weight="bold" lengthAdjust="spacing" textLength="140" x="10" y="20.9951">Ejercicios_Figuras</text>
        </g>
        <!--cluster java-->
        <g id="cluster_java">
            <path d="M508.5,105 L540.5,105 A3.75,3.75 0 0 1 543,107.5 L550,127.2969 L817.5,127.2969 A2.5,2.5 0 0 1 820,129.7969 L820,268.5 A2.5,2.5 0 0 1 817.5,271 L508.5,271 A2.5,2.5 0 0 1 506,268.5 L506,107.5 A2.5,2.5 0 0 1 508.5,105 " fill="none" style="stroke:#000000;stroke-width:1.5;"/>
            <line style="stroke:#000000;stroke-width:1.5;" x1="506" x2="550" y1="127.2969" y2="127.2969"/>
            <text fill="#000000" font-family="sans-serif" font-size="14" font-weight="bold" lengthAdjust="spacing" textLength="31" x="510" y="119.9951">java</text>
        </g>
        <!--cluster lang-->
        <g id="cluster_lang">
            <path d="M532.5,148 L566.5,148 A3.75,3.75 0 0 1 569,150.5 L576,170.2969 L649.5,170.2969 A2.5,2.5 0 0 1 652,172.7969 L652,244.5 A2.5,2.5 0 0 1 649.5,247 L532.5,247 A2.5,2.5 0 0 1 530,244.5 L530,150.5 A2.5,2.5 0 0 1 532.5,148 " fill="none" style="stroke:#000000;stroke-width:1.5;"/>
            <line style="stroke:#000000;stroke-width:1.5;" x1="530" x2="576" y1="170.2969" y2="170.2969"/>
            <text fill="#000000" font-family="sans-serif" font-size="14" font-weight="bold" lengthAdjust="spacing" textLength="33" x="534" y="162.9951">lang</text>
        </g>
        <!--cluster util-->
        <g id="cluster_util">
            <path d="M678.5,148 L703.5,148 A3.75,3.75 0 0 1 706,150.5 L713,170.2969 L793.5,170.2969 A2.5,2.5 0 0 1 796,172.7969 L796,244.5 A2.5,2.5 0 0 1 793.5,247 L678.5,247 A2.5,2.5 0 0 1 676,244.5 L676,150.5 A2.5,2.5 0 0 1 678.5,148 " fill="none" style="stroke:#000000;stroke-width:1.5;"/>
            <line style="stroke:#000000;stroke-width:1.5;" x1="676" x2="713" y1="170.2969" y2="170.2969"/>
            <text fill="#000000" font-family="sans-serif" font-size="14" font-weight="bold" lengthAdjust="spacing" textLength="24" x="680" y="162.9951">util</text>
        </g>
        <!--class Figura-->
        <g id="elem_Figura">
            <rect codeLine="1" fill="#F1F1F1" height="48" id="Figura" rx="2.5" ry="2.5" style="stroke:#181818;stroke-width:0.5;" width="74" x="166" y="183"/>
            <ellipse cx="181" cy="199" fill="#A9DCDF" rx="11" ry="11" style="stroke:#181818;stroke-width:1.0;"/>
            <path d="M176.1719,204.75 L179.5156,192.5625 L182.6563,192.5625 L186.0313,204.75 L183.5625,204.75 L182.8281,201.7344 L179.3125,201.7344 L178.5625,204.75 L176.1719,204.75 Z M180.5781,196.7031 L179.8281,199.7031 L182.3438,199.7031 L181.625,196.7031 Q181.4844,196.125 181.3594,195.5781 Q181.2344,195.0156 181.0938,194.4375 Q180.9844,195.0156 180.8438,195.5781 Q180.7031,196.125 180.5781,196.7031 Z " fill="#000000"/>
            <text fill="#000000" font-family="sans-serif" font-size="14" font-style="italic" lengthAdjust="spacing" textLength="42" x="195" y="203.8467">Figura</text>
            <line style="stroke:#181818;stroke-width:0.5;" x1="167" x2="239" y1="215" y2="215"/>
            <line style="stroke:#181818;stroke-width:0.5;" x1="167" x2="239" y1="223" y2="223"/>
        </g>
        <!--class Circulo-->
        <g id="elem_Circulo">
            <rect codeLine="3" fill="#F1F1F1" height="48" id="Circulo" rx="2.5" ry="2.5" style="stroke:#181818;stroke-width:0.5;" width="79" x="287.5" y="41"/>
            <ellipse cx="302.5" cy="57" fill="#ADD1B2" rx="11" ry="11" style="stroke:#181818;stroke-width:1.0;"/>
            <path d="M301.9688,63.9219 Q300.2188,63.9219 299.0781,63.1875 Q297.9531,62.4375 297.3906,61.0938 Q296.8438,59.7344 296.8438,57.9375 Q296.8438,55.9063 297.5,54.4531 Q298.1563,53 299.4375,52.2188 Q300.7188,51.4375 302.5938,51.4375 Q303.4844,51.4375 304.1563,51.625 Q304.8281,51.7969 305.5156,52.1406 L304.7031,54.1563 Q304.0781,53.8438 303.5313,53.7188 Q303,53.5938 302.5156,53.5938 Q301.3438,53.5938 300.6406,54.125 Q299.9375,54.6563 299.6406,55.6094 Q299.3438,56.5625 299.3438,57.8281 Q299.3438,59.8438 300.0625,60.8125 Q300.7813,61.7656 302.375,61.7656 Q302.9688,61.7656 303.5938,61.6094 Q304.2188,61.4531 305.0469,61.0781 L305.0469,63.2969 Q304.3125,63.6094 303.5156,63.7656 Q302.7344,63.9219 301.9688,63.9219 Z " fill="#000000"/>
            <text fill="#000000" font-family="sans-serif" font-size="14" lengthAdjust="spacing" textLength="47" x="316.5" y="61.8467">Circulo</text>
            <line style="stroke:#181818;stroke-width:0.5;" x1="288.5" x2="365.5" y1="73" y2="73"/>
            <line style="stroke:#181818;stroke-width:0.5;" x1="288.5" x2="365.5" y1="81" y2="81"/>
        </g>
        <!--class Cuadrado-->
        <g id="elem_Cuadrado">
            <rect codeLine="4" fill="#F1F1F1" height="48" id="Cuadrado" rx="2.5" ry="2.5" style="stroke:#181818;stroke-width:0.5;" width="99" x="153.5" y="41"/>
            <ellipse cx="168.5" cy="57" fill="#ADD1B2" rx="11" ry="11" style="stroke:#181818;stroke-width:1.0;"/>
            <path d="M167.9688,63.9219 Q166.2188,63.9219 165.0781,63.1875 Q163.9531,62.4375 163.3906,61.0938 Q162.8438,59.7344 162.8438,57.9375 Q162.8438,55.9063 163.5,54.4531 Q164.1563,53 165.4375,52.2188 Q166.7188,51.4375 168.5938,51.4375 Q169.4844,51.4375 170.1563,51.625 Q170.8281,51.7969 171.5156,52.1406 L170.7031,54.1563 Q170.0781,53.8438 169.5313,53.7188 Q169,53.5938 168.5156,53.5938 Q167.3438,53.5938 166.6406,54.125 Q165.9375,54.6563 165.6406,55.6094 Q165.3438,56.5625 165.3438,57.8281 Q165.3438,59.8438 166.0625,60.8125 Q166.7813,61.7656 168.375,61.7656 Q168.9688,61.7656 169.5938,61.6094 Q170.2188,61.4531 171.0469,61.0781 L171.0469,63.2969 Q170.3125,63.6094 169.5156,63.7656 Q168.7344,63.9219 167.9688,63.9219 Z " fill="#000000"/>
            <text fill="#000000" font-family="sans-serif" font-size="14" lengthAdjust="spacing" textLength="67" x="182.5" y="61.8467">Cuadrado</text>
            <line style="stroke:#181818;stroke-width:0.5;" x1="154.5" x2="251.5" y1="73" y2="73"/>
            <line style="stroke:#181818;stroke-width:0.5;" x1="154.5" x2="251.5" y1="81" y2="81"/>
        </g>
        <!--class Main-->
        <g id="elem_Main">
            <rect codeLine="5" fill="#F1F1F1" height="48" id="Main" rx="2.5" ry="2.5" style="stroke:#181818;stroke-width:0.5;" width="64" x="402" y="41"/>
            <ellipse cx="417" cy="57" fill="#ADD1B2" rx="11" ry="11" style="stroke:#181818;stroke-width:1.0;"/>
            <path d="M416.4688,63.9219 Q414.7188,63.9219 413.5781,63.1875 Q412.4531,62.4375 411.8906,61.0938 Q411.3438,59.7344 411.3438,57.9375 Q411.3438,55.9063 412,54.4531 Q412.6563,53 413.9375,52.2188 Q415.2188,51.4375 417.0938,51.4375 Q417.9844,51.4375 418.6563,51.625 Q419.3281,51.7969 420.0156,52.1406 L419.2031,54.1563 Q418.5781,53.8438 418.0313,53.7188 Q417.5,53.5938 417.0156,53.5938 Q415.8438,53.5938 415.1406,54.125 Q414.4375,54.6563 414.1406,55.6094 Q413.8438,56.5625 413.8438,57.8281 Q413.8438,59.8438 414.5625,60.8125 Q415.2813,61.7656 416.875,61.7656 Q417.4688,61.7656 418.0938,61.6094 Q418.7188,61.4531 419.5469,61.0781 L419.5469,63.2969 Q418.8125,63.6094 418.0156,63.7656 Q417.2344,63.9219 416.4688,63.9219 Z " fill="#000000"/>
            <text fill="#000000" font-family="sans-serif" font-size="14" lengthAdjust="spacing" textLength="32" x="431" y="61.8467">Main</text>
            <line style="stroke:#181818;stroke-width:0.5;" x1="403" x2="465" y1="73" y2="73"/>
            <line style="stroke:#181818;stroke-width:0.5;" x1="403" x2="465" y1="81" y2="81"/>
        </g>
        <!--class Triangulo-->
        <g id="elem_Triangulo">
            <rect codeLine="6" fill="#F1F1F1" height="48" id="Triangulo" rx="2.5" ry="2.5" style="stroke:#181818;stroke-width:0.5;" width="96" x="22" y="41"/>
            <ellipse cx="37" cy="57" fill="#ADD1B2" rx="11" ry="11" style="stroke:#181818;stroke-width:1.0;"/>
            <path d="M36.4688,63.9219 Q34.7188,63.9219 33.5781,63.1875 Q32.4531,62.4375 31.8906,61.0938 Q31.3438,59.7344 31.3438,57.9375 Q31.3438,55.9063 32,54.4531 Q32.6563,53 33.9375,52.2188 Q35.2188,51.4375 37.0938,51.4375 Q37.9844,51.4375 38.6563,51.625 Q39.3281,51.7969 40.0156,52.1406 L39.2031,54.1563 Q38.5781,53.8438 38.0313,53.7188 Q37.5,53.5938 37.0156,53.5938 Q35.8438,53.5938 35.1406,54.125 Q34.4375,54.6563 34.1406,55.6094 Q33.8438,56.5625 33.8438,57.8281 Q33.8438,59.8438 34.5625,60.8125 Q35.2813,61.7656 36.875,61.7656 Q37.4688,61.7656 38.0938,61.6094 Q38.7188,61.4531 39.5469,61.0781 L39.5469,63.2969 Q38.8125,63.6094 38.0156,63.7656 Q37.2344,63.9219 36.4688,63.9219 Z " fill="#000000"/>
            <text fill="#000000" font-family="sans-serif" font-size="14" lengthAdjust="spacing" textLength="64" x="51" y="61.8467">Triangulo</text>
            <line style="stroke:#181818;stroke-width:0.5;" x1="23" x2="117" y1="73" y2="73"/>
            <line style="stroke:#181818;stroke-width:0.5;" x1="23" x2="117" y1="81" y2="81"/>
        </g>
        <!--class Override-->
        <g id="elem_Override">
            <rect codeLine="2" fill="#F1F1F1" height="48" id="Override" rx="2.5" ry="2.5" style="stroke:#181818;stroke-width:0.5;" width="90" x="546" y="183"/>
            <ellipse cx="561" cy="199" fill="#E3664A" rx="11" ry="11" style="stroke:#181818;stroke-width:1.0;"/>
            <path d="M560.9375,206.5156 Q559.2344,206.5156 558.0156,205.75 Q556.7969,204.9844 556.1406,203.5781 Q555.5,202.1563 555.5,200.2031 Q555.5,198.6406 555.875,197.3125 Q556.25,195.9688 556.9531,194.9688 Q557.6719,193.9688 558.7031,193.4219 Q559.7344,192.8594 561.0469,192.8594 Q562.4375,192.8594 563.4844,193.6094 Q564.5313,194.3438 565.1094,195.6719 Q565.7031,197 565.7031,198.7969 Q565.7031,199.9688 565.4219,200.9688 Q565.1406,201.9531 564.5781,202.5625 Q564.0313,203.1563 563.2188,203.1563 Q562.6875,203.1563 562.3438,202.8906 Q562.0156,202.625 561.8281,202.1875 L561.7969,202.1875 Q561.5469,202.5625 561.1563,202.8594 Q560.7656,203.1563 560.1875,203.1563 Q559.2031,203.1563 558.6563,202.2656 Q558.125,201.3594 558.125,199.9219 Q558.125,198.8125 558.4531,197.9688 Q558.7813,197.125 559.3906,196.6406 Q560,196.1563 560.875,196.1563 Q561.4688,196.1563 562.0313,196.3125 Q562.6094,196.4531 563.0781,196.625 L562.9063,199.9688 Q562.8906,200.0938 562.8906,200.2188 Q562.8906,200.3438 562.8906,200.5 Q562.875,201.1719 562.9844,201.4219 Q563.1094,201.6563 563.3125,201.6563 Q563.6563,201.6563 563.8438,200.8438 Q564.0469,200.0156 564.0469,198.8281 Q564.0469,196.5313 563.1875,195.3906 Q562.3438,194.25 561.0469,194.25 Q559.8125,194.25 558.9375,195.0156 Q558.0781,195.7656 557.625,197.0938 Q557.1719,198.4063 557.1719,200.0938 Q557.1719,202.5 558.1406,203.8125 Q559.1094,205.1094 560.8594,205.1094 Q561.6563,205.1094 562.4531,204.9219 Q563.2656,204.7188 563.9375,204.4063 L563.9375,205.8281 Q563.3125,206.1563 562.5625,206.3281 Q561.8281,206.5156 560.9375,206.5156 Z M560.4063,201.6563 Q560.8594,201.6563 561.0469,201.0313 Q561.25,200.3906 561.2969,199.4531 L561.375,197.7656 Q561.1719,197.6719 560.9375,197.6719 Q560.4844,197.6719 560.2188,198.0156 Q559.9531,198.3438 559.8438,198.8594 Q559.7344,199.375 559.7344,199.9531 Q559.7344,200.8594 559.9063,201.2656 Q560.0781,201.6563 560.4063,201.6563 Z " fill="#000000"/>
            <text fill="#000000" font-family="sans-serif" font-size="14" lengthAdjust="spacing" textLength="58" x="575" y="203.8467">Override</text>
            <line style="stroke:#181818;stroke-width:0.5;" x1="547" x2="635" y1="215" y2="215"/>
            <line style="stroke:#181818;stroke-width:0.5;" x1="547" x2="635" y1="223" y2="223"/>
        </g>
        <!--class Scanner-->
        <g id="elem_Scanner">
            <rect codeLine="7" fill="#F1F1F1" height="48" id="Scanner" rx="2.5" ry="2.5" style="stroke:#181818;stroke-width:0.5;" width="89" x="691.5" y="183"/>
            <ellipse cx="706.5" cy="199" fill="#ADD1B2" rx="11" ry="11" style="stroke:#181818;stroke-width:1.0;"/>
            <path d="M705.9688,205.9219 Q704.2188,205.9219 703.0781,205.1875 Q701.9531,204.4375 701.3906,203.0938 Q700.8438,201.7344 700.8438,199.9375 Q700.8438,197.9063 701.5,196.4531 Q702.1563,195 703.4375,194.2188 Q704.7188,193.4375 706.5938,193.4375 Q707.4844,193.4375 708.1563,193.625 Q708.8281,193.7969 709.5156,194.1406 L708.7031,196.1563 Q708.0781,195.8438 707.5313,195.7188 Q707,195.5938 706.5156,195.5938 Q705.3438,195.5938 704.6406,196.125 Q703.9375,196.6563 703.6406,197.6094 Q703.3438,198.5625 703.3438,199.8281 Q703.3438,201.8438 704.0625,202.8125 Q704.7813,203.7656 706.375,203.7656 Q706.9688,203.7656 707.5938,203.6094 Q708.2188,203.4531 709.0469,203.0781 L709.0469,205.2969 Q708.3125,205.6094 707.5156,205.7656 Q706.7344,205.9219 705.9688,205.9219 Z " fill="#000000"/>
            <text fill="#000000" font-family="sans-serif" font-size="14" lengthAdjust="spacing" textLength="57" x="720.5" y="203.8467">Scanner</text>
            <line style="stroke:#181818;stroke-width:0.5;" x1="692.5" x2="779.5" y1="215" y2="215"/>
            <line style="stroke:#181818;stroke-width:0.5;" x1="692.5" x2="779.5" y1="223" y2="223"/>
        </g>
        <!--link Circulo to Figura-->
        <g id="link_Circulo_Figura">
            <path codeLine="8" d="M306.52,89.12 C283.55,115.06 258.4208,143.412 235.4408,169.372 " fill="none" id="Circulo-to-Figura" style="stroke:#181818;stroke-width:1.0;"/>
            <polygon fill="none" points="223.51,182.85,239.9335,173.349,230.9482,165.3951,223.51,182.85" style="stroke:#181818;stroke-width:1.0;"/>
        </g>
        <!--link Circulo to Override-->
        <g id="link_Circulo_Override">
            <path codeLine="9" d="M366.76,83.54 C372.78,85.67 378.99,87.59 385,89 C427.12,98.86 442.75,78.82 482,97 C522.79,115.9 553.4861,152.0694 572.1761,178.0494 " fill="none" id="Circulo-to-Override" style="stroke:#181818;stroke-width:1.0;stroke-dasharray:7.0,7.0;"/>
            <polygon fill="#181818" points="575.68,182.92,573.6712,173.2782,572.7601,178.8612,567.1771,177.95,575.68,182.92" style="stroke:#181818;stroke-width:1.0;"/>
        </g>
        <!--link Cuadrado to Figura-->
        <g id="link_Cuadrado_Figura">
            <path codeLine="10" d="M203,89.12 C203,115.06 203,138.89 203,164.85 " fill="none" id="Cuadrado-to-Figura" style="stroke:#181818;stroke-width:1.0;"/>
            <polygon fill="none" points="203,182.85,209,164.85,197,164.85,203,182.85" style="stroke:#181818;stroke-width:1.0;"/>
        </g>
        <!--link Cuadrado to Override-->
        <g id="link_Cuadrado_Override">
            <path codeLine="11" d="M252.69,84.84 C258.46,86.5 264.32,87.94 270,89 C293.17,93.32 460.4,87.57 482,97 C523.21,114.99 553.81,151.4081 572.36,177.6881 " fill="none" id="Cuadrado-to-Override" style="stroke:#181818;stroke-width:1.0;stroke-dasharray:7.0,7.0;"/>
            <polygon fill="#181818" points="575.82,182.59,573.8979,172.9305,572.9366,178.5051,567.3621,177.5439,575.82,182.59" style="stroke:#181818;stroke-width:1.0;"/>
        </g>
        <!--link Main to Scanner-->
        <g id="link_Main_Scanner">
            <path codeLine="12" d="M466.24,67.62 C519.03,70.76 621.12,79 652,97 C686.47,117.09 708.9257,152.0451 722.3157,177.6051 " fill="none" id="Main-to-Scanner" style="stroke:#181818;stroke-width:1.0;stroke-dasharray:7.0,7.0;"/>
            <polygon fill="#181818" points="725.1,182.92,724.4668,173.0915,722.7798,178.4909,717.3803,176.8039,725.1,182.92" style="stroke:#181818;stroke-width:1.0;"/>
        </g>
        <!--link Triangulo to Figura-->
        <g id="link_Triangulo_Figura">
            <path codeLine="13" d="M91.96,89.12 C116.61,115.06 143.953,143.8395 168.613,169.7995 " fill="none" id="Triangulo-to-Figura" style="stroke:#181818;stroke-width:1.0;"/>
            <polygon fill="none" points="181.01,182.85,172.9632,165.6672,164.2629,173.9318,181.01,182.85" style="stroke:#181818;stroke-width:1.0;"/>
        </g>
        <!--link Triangulo to Override-->
        <g id="link_Triangulo_Override">
            <path codeLine="14" d="M118.2,84.72 C124.12,86.44 130.15,87.94 136,89 C173.84,95.86 446.64,81.87 482,97 C523.58,114.79 554.332,151.6727 572.762,178.0327 " fill="none" id="Triangulo-to-Override" style="stroke:#181818;stroke-width:1.0;stroke-dasharray:7.0,7.0;"/>
            <polygon fill="#181818" points="576.2,182.95,574.3212,173.282,573.335,178.8522,567.7648,177.866,576.2,182.95" style="stroke:#181818;stroke-width:1.0;"/>
        </g>
        <!--SRC=[dP2n3i8m44FtVaL-eFc4BWWsn00xCfUekYfAf4lIYO-dW21B4r2d6ywMdurRJ09AYXnYLFl92Z5nYDS3ZraGzVjsy3ua90vUJPYX7VoeJxCLOMExgdl7Gjc5XY3324n3SGJx-lSYl92KY1TSJkpqcHPcArsTIlNzVMXqRZYr7jPsQ1JS4lQn_f_s7Al8V-tm7My3NF6kqpq0]-->
    </g>
</svg>
